#tb 0: 1/25
#media_type 0: video
#codec_id 0: rawvideo
#dimensions 0: 720x480
#sar 0: 0/1
0,          0,          0,        1,   518400, 0x4cecc821
0,          1,          1,        1,   518400, 0xee49ea81
0,          2,          2,        1,   518400, 0x78b0d65f
0,          3,          3,        1,   518400, 0x7fa72010
0,          4,          4,        1,   518400, 0xbc7fecdb
0,          5,          5,        1,   518400, 0xe54cf951
0,          6,          6,        1,   518400, 0x1e2795e0
0,          7,          7,        1,   518400, 0x7db968b9
0,          8,          8,        1,   518400, 0xcecb446b
0,          9,          9,        1,   518400, 0x4f813fc5
0,         10,         10,        1,   518400, 0xd0816131
0,         11,         11,        1,   518400, 0x6cf66cb7
0,         12,         12,        1,   518400, 0xac9913a1
0,         13,         13,        1,   518400, 0x0a2dd6ae
0,         14,         14,        1,   518400, 0x5de1acef
0,         15,         15,        1,   518400, 0x5ac7741e
0,         16,         16,        1,   518400, 0x4d2726de
0,         17,         17,        1,   518400, 0x6b9b2677
0,         18,         18,        1,   518400, 0x99b70e82
0,         19,         19,        1,   518400, 0x6a01ed56
0,         20,         20,        1,   518400, 0xa6976f95
0,         21,         21,        1,   518400, 0x645f6562
0,         22,         22,        1,   518400, 0xf750796b
0,         23,         23,        1,   518400, 0xe381ee9c
0,         24,         24,        1,   518400, 0xb7d45f84
0,         25,         25,        1,   518400, 0x7c9d79df
0,         26,         26,        1,   518400, 0x8a306a11
0,         27,         27,        1,   518400, 0x766fcf15
0,         28,         28,        1,   518400, 0x45c3cbdd
0,         29,         29,        1,   518400, 0x6a22610e
